<svg width="22" height="22" viewBox="0 0 22 22" fill="none" xmlns="http://www.w3.org/2000/svg">
<path fill-rule="evenodd" clip-rule="evenodd" d="M2.90912 3.54774C4.9184 1.36746 7.79916 0 11 0C17.0751 0 22 4.92487 22 11C22 17.0751 17.0751 22 11 22C4.92487 22 0 17.0751 0 11C0 10.4477 0.447715 10 1 10C1.55228 10 2 10.4477 2 11C2 15.9706 6.02943 20 11 20C15.9706 20 20 15.9706 20 11C20 6.02943 15.9706 2 11 2C8.33535 2 5.94031 3.15769 4.29152 5H5.5455C6.09778 5 6.5455 5.44772 6.5455 6C6.5455 6.55228 6.09778 7 5.5455 7H1.90912C1.35684 7 0.90912 6.55228 0.90912 6V2.36365C0.90912 1.81136 1.35684 1.36365 1.90912 1.36365C2.4614 1.36365 2.90912 1.81136 2.90912 2.36365V3.54774ZM11.0026 4C11.5549 4.00006 12.0026 4.44781 12.0025 5.0001L12.0019 10.5902L15.9487 14.537C16.3392 14.9275 16.3392 15.5607 15.9487 15.9512C15.5582 16.3417 14.925 16.3417 14.5345 15.9512L10.2948 11.7115C10.1072 11.5239 10.0019 11.2696 10.0019 11.0043L10.0025 4.9999C10.0026 4.44762 10.4503 3.99994 11.0026 4Z" fill="black" fill-opacity="0.85"/>
</svg>
